M48
; DRILL file {KiCad (6.0.1)} date Thu Jan 27 00:39:03 2022
; FORMAT={-:-/ absolute / metric / decimal}
; #@! TF.CreationDate,2022-01-27T00:39:03-06:00
; #@! TF.GenerationSoftware,Kicad,Pcbnew,(6.0.1)
; #@! TF.FileFunction,Plated,1,2,PTH
FMAT,2
METRIC
; #@! TA.AperFunction,Plated,PTH,ViaDrill
T1C0.400
; #@! TA.AperFunction,Plated,PTH,ComponentDrill
T2C0.500
; #@! TA.AperFunction,Plated,PTH,ComponentDrill
T3C1.000
; #@! TA.AperFunction,Plated,PTH,ComponentDrill
T4C1.270
; #@! TA.AperFunction,Plated,PTH,ComponentDrill
T5C2.300
; #@! TA.AperFunction,Plated,PTH,ComponentDrill
T6C2.700
; #@! TA.AperFunction,Plated,PTH,ComponentDrill
T7C3.000
%
G90
G05
T1
X73.075Y-89.957
X112.873Y-94.574
X115.0Y-92.3
X115.12Y-85.245
X115.933Y-88.095
X116.5Y-79.345
X117.1Y-61.6
T2
X51.475Y-53.5
X51.475Y-102.5
X52.068Y-52.068
X52.068Y-54.932
X52.068Y-101.068
X52.068Y-103.932
X53.5Y-51.475
X53.5Y-55.525
X53.5Y-100.475
X53.5Y-104.525
X54.932Y-52.068
X54.932Y-54.932
X54.932Y-101.068
X54.932Y-103.932
X55.525Y-53.5
X55.525Y-102.5
X109.475Y-53.5
X109.475Y-102.5
X110.068Y-52.068
X110.068Y-54.932
X110.068Y-101.068
X110.068Y-103.932
X111.5Y-51.475
X111.5Y-55.525
X111.5Y-100.475
X111.5Y-104.525
X112.932Y-52.068
X112.932Y-54.932
X112.932Y-101.068
X112.932Y-103.932
X113.525Y-53.5
X113.525Y-102.5
T3
X80.57Y-101.73
X80.57Y-104.27
X83.11Y-101.73
X83.11Y-104.27
X85.65Y-101.73
X85.65Y-104.27
X88.19Y-101.73
X88.19Y-104.27
X90.73Y-101.73
X90.73Y-104.27
X93.27Y-101.73
X93.27Y-104.27
X95.81Y-101.73
X95.81Y-104.27
X98.35Y-101.73
X98.35Y-104.27
X100.89Y-101.73
X100.89Y-104.27
X103.2Y-70.607
X103.2Y-73.147
X103.2Y-75.687
X103.2Y-78.227
X103.2Y-80.767
X103.2Y-83.307
X103.2Y-85.847
X103.43Y-101.73
X103.43Y-104.27
X105.74Y-70.607
X105.74Y-73.147
X105.74Y-75.687
X105.74Y-78.227
X105.74Y-80.767
X105.74Y-83.307
X105.74Y-85.847
T4
X125.45Y-59.0
X125.45Y-61.5
X125.45Y-66.5
X125.45Y-69.0
X125.45Y-87.0
X125.45Y-89.5
X125.45Y-94.5
X125.45Y-97.0
X125.5Y-73.0
X125.5Y-75.5
X125.5Y-80.5
X125.5Y-83.0
X130.45Y-64.0
X130.45Y-92.0
X130.5Y-78.0
T5
X58.5Y-69.0
X58.5Y-87.0
T6
X53.5Y-53.5
X53.5Y-102.5
X111.5Y-53.5
X111.5Y-102.5
T7
X54.0Y-69.0
X54.0Y-87.0
T0
M30
