%TF.GenerationSoftware,KiCad,Pcbnew,(6.0.1)*%
%TF.CreationDate,2022-01-27T00:37:02-06:00*%
%TF.ProjectId,Radioberry-I-O,52616469-6f62-4657-9272-792d492d4f2e,1.0*%
%TF.SameCoordinates,Original*%
%TF.FileFunction,Soldermask,Top*%
%TF.FilePolarity,Negative*%
%FSLAX46Y46*%
G04 Gerber Fmt 4.6, Leading zero omitted, Abs format (unit mm)*
G04 Created by KiCad (PCBNEW (6.0.1)) date 2022-01-27 00:37:02*
%MOMM*%
%LPD*%
G01*
G04 APERTURE LIST*
%ADD10C,0.800000*%
%ADD11C,6.000000*%
%ADD12C,1.200000*%
%ADD13C,2.100000*%
%ADD14C,2.050000*%
%ADD15C,3.500000*%
%ADD16C,4.000000*%
%ADD17C,3.200000*%
%ADD18C,28.500000*%
%ADD19R,1.700000X1.700000*%
%ADD20O,1.700000X1.700000*%
G04 APERTURE END LIST*
D10*
%TO.C,REF3*%
X54931891Y-101068109D03*
X53500000Y-104525000D03*
X55525000Y-102500000D03*
X53500000Y-100475000D03*
D11*
X53500000Y-102500000D03*
D10*
X54931891Y-103931891D03*
X52068109Y-103931891D03*
X52068109Y-101068109D03*
X51475000Y-102500000D03*
%TD*%
D12*
%TO.C,CN5*%
X130450000Y-59000000D03*
X132950000Y-59000000D03*
X132950000Y-69000000D03*
X130450000Y-69000000D03*
X125450000Y-64000000D03*
D13*
X130450000Y-64000000D03*
D14*
X125450000Y-59000000D03*
X125450000Y-69000000D03*
X125450000Y-61500000D03*
X125450000Y-66500000D03*
%TD*%
D10*
%TO.C,REF4*%
X112931891Y-101068109D03*
X110068109Y-101068109D03*
X112931891Y-103931891D03*
X113525000Y-102500000D03*
D11*
X111500000Y-102500000D03*
D10*
X109475000Y-102500000D03*
X111500000Y-100475000D03*
X111500000Y-104525000D03*
X110068109Y-103931891D03*
%TD*%
D15*
%TO.C,CN1*%
X58500000Y-87000000D03*
D16*
X54000000Y-87000000D03*
%TD*%
D17*
%TO.C,M1*%
X70500000Y-90000000D03*
X94500000Y-66000000D03*
D18*
X82500000Y-78000000D03*
D17*
X70500000Y-66000000D03*
X94500000Y-90000000D03*
%TD*%
D10*
%TO.C,REF1*%
X52068109Y-52068109D03*
X53500000Y-55525000D03*
X54931891Y-54931891D03*
X53500000Y-51475000D03*
X52068109Y-54931891D03*
X54931891Y-52068109D03*
X55525000Y-53500000D03*
X51475000Y-53500000D03*
D11*
X53500000Y-53500000D03*
%TD*%
D19*
%TO.C,J2*%
X103200000Y-70607000D03*
D20*
X105740000Y-70607000D03*
X103200000Y-73147000D03*
X105740000Y-73147000D03*
X103200000Y-75687000D03*
X105740000Y-75687000D03*
X103200000Y-78227000D03*
X105740000Y-78227000D03*
X103200000Y-80767000D03*
X105740000Y-80767000D03*
X103200000Y-83307000D03*
X105740000Y-83307000D03*
X103200000Y-85847000D03*
X105740000Y-85847000D03*
%TD*%
D12*
%TO.C,CN3*%
X130450000Y-97000000D03*
X125450000Y-92000000D03*
X132950000Y-97000000D03*
X130450000Y-87000000D03*
X132950000Y-87000000D03*
D13*
X130450000Y-92000000D03*
D14*
X125450000Y-87000000D03*
X125450000Y-97000000D03*
X125450000Y-89500000D03*
X125450000Y-94500000D03*
%TD*%
D10*
%TO.C,REF2*%
X110068109Y-54931891D03*
X113525000Y-53500000D03*
X111500000Y-51475000D03*
D11*
X111500000Y-53500000D03*
D10*
X112931891Y-52068109D03*
X112931891Y-54931891D03*
X109475000Y-53500000D03*
X111500000Y-55525000D03*
X110068109Y-52068109D03*
%TD*%
D15*
%TO.C,CN2*%
X58500000Y-69000000D03*
D16*
X54000000Y-69000000D03*
%TD*%
D12*
%TO.C,CN4*%
X130500000Y-73000000D03*
X125500000Y-78000000D03*
X133000000Y-83000000D03*
X130500000Y-83000000D03*
X133000000Y-73000000D03*
D13*
X130500000Y-78000000D03*
D14*
X125500000Y-73000000D03*
X125500000Y-83000000D03*
X125500000Y-75500000D03*
X125500000Y-80500000D03*
%TD*%
D19*
%TO.C,J1*%
X103430000Y-101730000D03*
D20*
X103430000Y-104270000D03*
X100890000Y-101730000D03*
X100890000Y-104270000D03*
X98350000Y-101730000D03*
X98350000Y-104270000D03*
X95810000Y-101730000D03*
X95810000Y-104270000D03*
X93270000Y-101730000D03*
X93270000Y-104270000D03*
X90730000Y-101730000D03*
X90730000Y-104270000D03*
X88190000Y-101730000D03*
X88190000Y-104270000D03*
X85650000Y-101730000D03*
X85650000Y-104270000D03*
X83110000Y-101730000D03*
X83110000Y-104270000D03*
X80570000Y-101730000D03*
X80570000Y-104270000D03*
%TD*%
M02*
